<?xml version="1.0" standalone="no"?><!DOCTYPE svg PUBLIC "-//W3C//DTD SVG 1.1//EN" "http://www.w3.org/Graphics/SVG/1.1/DTD/svg11.dtd"><svg t="1699850679427" class="icon" viewBox="0 0 1024 1024" version="1.1" xmlns="http://www.w3.org/2000/svg" p-id="5420" xmlns:xlink="http://www.w3.org/1999/xlink" width="200" height="200"><path d="M407.36 109.12a462.816 462.816 0 0 0-37.44 80.64 762.784 762.784 0 0 0-36.16 144 762.784 762.784 0 0 0-144 36.16 462.816 462.816 0 0 0-80.64 37.44 417.408 417.408 0 0 1 298.24-298.24zM626.24 698.56a611.552 611.552 0 0 1-42.88 158.4C562.88 901.76 538.24 928 512 928s-50.88-26.24-71.36-71.04a611.552 611.552 0 0 1-42.88-158.4 1193.888 1193.888 0 0 0 228.48 0zM626.24 325.44a1193.888 1193.888 0 0 0-228.48 0 611.552 611.552 0 0 1 42.88-158.4C461.12 122.24 485.76 96 512 96s50.88 26.24 71.36 71.04a611.552 611.552 0 0 1 42.88 158.4zM914.88 407.36a462.816 462.816 0 0 0-80.64-37.44 762.784 762.784 0 0 0-144-36.16 762.784 762.784 0 0 0-36.16-144 462.816 462.816 0 0 0-37.44-80.64 417.408 417.408 0 0 1 298.24 298.24zM928 512c0 26.24-26.24 50.88-71.04 71.36a611.552 611.552 0 0 1-158.4 42.88 1193.888 1193.888 0 0 0 0-228.48 611.552 611.552 0 0 1 158.4 42.88c44.8 20.48 71.04 45.12 71.04 71.36zM914.88 616.64a417.408 417.408 0 0 1-298.24 298.24 462.816 462.816 0 0 0 37.44-80.64 762.784 762.784 0 0 0 36.16-144 762.784 762.784 0 0 0 144-36.16 462.816 462.816 0 0 0 80.64-37.44zM640 512c0 42.56-1.92 83.52-5.76 122.24-38.72 3.84-79.68 5.76-122.24 5.76s-83.52-1.92-122.24-5.76C385.92 595.52 384 554.56 384 512s1.92-83.52 5.76-122.24c38.72-3.84 79.68-5.76 122.24-5.76s83.52 1.92 122.24 5.76c3.84 38.72 5.76 79.68 5.76 122.24zM407.36 914.88a417.408 417.408 0 0 1-298.24-298.24 462.816 462.816 0 0 0 80.64 37.44 762.784 762.784 0 0 0 144 36.16 762.784 762.784 0 0 0 36.16 144 462.816 462.816 0 0 0 37.44 80.64zM320 512c0 39.36 1.92 77.76 5.44 114.24a611.552 611.552 0 0 1-158.4-42.88C122.24 562.88 96 538.24 96 512s26.24-50.88 71.04-71.36a611.552 611.552 0 0 1 158.4-42.88C321.92 434.24 320 472.64 320 512z" p-id="5421"></path></svg>