<?xml version="1.0" standalone="no"?><!DOCTYPE svg PUBLIC "-//W3C//DTD SVG 1.1//EN" "http://www.w3.org/Graphics/SVG/1.1/DTD/svg11.dtd"><svg t="1699856381272" class="icon" viewBox="0 0 1024 1024" version="1.1" xmlns="http://www.w3.org/2000/svg" p-id="50704" xmlns:xlink="http://www.w3.org/1999/xlink" width="200" height="200"><path d="M926.5 898.6c-0.5-15.6-9.8-28.9-22.3-28.9H873V363.1c0-40-25-72.4-55.8-72.4H583.9c0 13.6-0.2 27.1-0.1 40.7 0.2 101.7 0.4 203.3 0.5 305l0.2 135.7v56.6c0 16.2-10.2 28.2-22.3 28.9-12 0.6-22.2-13.8-22.3-28.9v-1c-0.4-23-0.1-46.1-0.1-69.1-0.2-101.6-0.3-203.3-0.5-304.9V170.9c0.1-40-24.9-72.4-55.7-72.4H206.7c-30.8 0-55.8 32.4-55.8 72.4v698.7c-9.9 0-19.9-0.2-29.9 0h-1.3c-11.7 0-22.8 13.3-22.3 28.9 0.6 15.5 9.8 28.9 22.3 28.9h752.4c10.2 0 20.5 0.2 30.7 0h1.3c11.7 0.1 22.9-13.2 22.4-28.8z m-252-412.4h119c12.5 0 21.8 13.2 22.3 28.9S805.2 544 793.5 544h-119c-12.5 0-21.8-13.2-22.3-28.9s10.6-29 22.3-28.9z m0 192.2h119c12.5 0 21.8 13.3 22.3 29s-10.6 28.9-22.3 28.9h-119c-12.5 0-21.8-13.3-22.3-28.9-0.5-15.7 10.6-29.1 22.3-29zM284 291.1h122.2c12.6 0 22 13.5 22.5 29.3 0.5 15.9-10.7 29.3-22.5 29.3H284.1c-12.6 0-22-13.5-22.5-29.3-0.6-15.8 10.7-29.3 22.4-29.3z m0 194.2h122.2c12.6 0 22 13.5 22.5 29.3 0.5 15.9-10.7 29.3-22.5 29.3H284.1c-12.6 0-22-13.5-22.5-29.3-0.6-15.8 10.7-29.2 22.4-29.3z m0 194h122.2c12.6 0 22 13.4 22.5 29.3s-10.7 29.3-22.5 29.3H284.1c-12.6 0-22-13.5-22.5-29.3-0.6-15.9 10.7-29.3 22.4-29.3z m0 0" p-id="50705"></path></svg>