<?xml version="1.0" standalone="no"?><!DOCTYPE svg PUBLIC "-//W3C//DTD SVG 1.1//EN" "http://www.w3.org/Graphics/SVG/1.1/DTD/svg11.dtd"><svg t="1699851497430" class="icon" viewBox="0 0 1024 1024" version="1.1" xmlns="http://www.w3.org/2000/svg" p-id="28053" xmlns:xlink="http://www.w3.org/1999/xlink" width="200" height="200"><path d="M914.638 867.275h-189.45c-26.156 0-47.363-21.206-47.363-47.362v-284.231c0-26.156 21.206-47.363 47.363-47.363h189.45c26.156 0 47.362 21.206 47.362 47.363v284.231c0 26.156-21.206 47.362-47.362 47.362zM630.406 488.319v236.869h-47.362l20.306 120.262c2.925 10.969-4.894 21.881-15.694 21.881h-198.675c-10.8 0-18.563-10.912-15.694-21.881l20.25-120.262h-267.581c-35.325-0.056-63.956-30.319-63.956-67.725v-433.069c0-37.35 28.631-67.669 63.956-67.669h724.781c35.325 0 63.956 30.319 63.956 67.669v216.563h-236.869c-26.213 0-47.419 21.206-47.419 47.363z" p-id="28054"></path></svg>