<?xml version="1.0" standalone="no"?><!DOCTYPE svg PUBLIC "-//W3C//DTD SVG 1.1//EN" "http://www.w3.org/Graphics/SVG/1.1/DTD/svg11.dtd"><svg t="1699849460677" class="icon" viewBox="0 0 1024 1024" version="1.1" xmlns="http://www.w3.org/2000/svg" p-id="1530" xmlns:xlink="http://www.w3.org/1999/xlink" width="200" height="200"><path d="M322.69 467.66c27.39-8.83 40.04-40.35 26.35-65.66l-72.22-133.53-8.44-15.6c-12.09-22.35-40-30.66-62.34-18.58C82.19 301.28 36.09 455.98 103.07 579.83l121.29 224.25c66.98 123.85 221.69 169.95 345.54 102.97 22.35-12.09 30.66-40 18.58-62.34l-8.44-15.61-72.22-133.53c-13.69-25.31-46.99-31.98-69.37-13.89l-49.43 39.95c-22.38 18.09-55.68 11.42-69.37-13.89l-83.79-154.92c-13.69-25.31-1.04-56.83 26.35-65.66l60.48-19.5zM676.84 868.69c-14.9 0-28.91-9.17-34.39-23.96-7.02-18.98 2.67-40.09 21.66-47.12 128.53-47.59 214.88-171.7 214.88-308.8 0-181.53-147.67-329.19-329.19-329.19-70.72 0-138.11 22.08-194.88 63.86-16.35 11.96-39.26 8.47-51.28-7.81-12-16.31-8.5-39.26 7.81-51.28 69.47-51.1 151.89-78.11 238.35-78.11 221.95 0 402.53 180.58 402.53 402.53 0 167.65-105.6 319.38-262.75 377.59-4.2 1.54-8.51 2.29-12.74 2.29z" fill="#231815" p-id="1531"></path><path d="M397.57 550.36c89.48-71.88 116.98-101.21 116.98-130.2 0-27.86-16.51-36.31-44.37-36.31-16.51 0-35.22 2.58-57.22 9.54v-44.38c19.44-6.23 42.92-9.17 67.48-9.17 56.11 0 89.12 23.47 89.12 72.26 0 41.07-14.66 67.48-89.12 126.15l-16.13 12.84v2.94h111.13v44.01H397.57v-47.68zM796.91 543.77h-27.86v54.27h-50.99v-54.27H604.75v-52.08l102.32-148.17h61.98v155.14h27.86v45.11z m-78.85-45.11V398.54h-2.2l-66.01 97.92v2.2h68.21z" fill="#040000" p-id="1532"></path></svg>